<svg width="40" height="40" viewBox="0 0 40 40" fill="none" xmlns="http://www.w3.org/2000/svg">
<rect width="40" height="40" rx="20" fill="#BFBFBF"/>
<path d="M27.7367 25.6133C27.3156 24.6159 26.7045 23.7099 25.9376 22.9459C25.1729 22.1796 24.2671 21.5687 23.2701 21.1468C23.2612 21.1423 23.2523 21.1401 23.2434 21.1356C24.634 20.1311 25.538 18.495 25.538 16.649C25.538 13.591 23.0603 11.1133 20.0023 11.1133C16.9443 11.1133 14.4666 13.591 14.4666 16.649C14.4666 18.495 15.3706 20.1311 16.7612 21.1378C16.7523 21.1423 16.7434 21.1445 16.7344 21.149C15.7344 21.5709 14.8371 22.1758 14.067 22.9481C13.3007 23.7128 12.6898 24.6186 12.2679 25.6155C11.8535 26.5915 11.6299 27.6379 11.6094 28.6981C11.6088 28.7219 11.613 28.7456 11.6217 28.7678C11.6304 28.79 11.6435 28.8102 11.6601 28.8273C11.6768 28.8443 11.6967 28.8579 11.7186 28.8671C11.7406 28.8764 11.7642 28.8811 11.788 28.8811H13.1273C13.2255 28.8811 13.3036 28.803 13.3059 28.707C13.3505 26.9838 14.0425 25.37 15.2657 24.1468C16.5313 22.8811 18.2121 22.1847 20.0023 22.1847C21.7925 22.1847 23.4733 22.8811 24.7389 24.1468C25.9621 25.37 26.6541 26.9838 26.6987 28.707C26.701 28.8052 26.7791 28.8811 26.8773 28.8811H28.2166C28.2404 28.8811 28.264 28.8764 28.286 28.8671C28.3079 28.8579 28.3278 28.8443 28.3444 28.8273C28.3611 28.8102 28.3741 28.79 28.3829 28.7678C28.3916 28.7456 28.3957 28.7219 28.3951 28.6981C28.3728 27.6311 28.1518 26.5932 27.7367 25.6133ZM20.0023 20.4883C18.9777 20.4883 18.0134 20.0887 17.288 19.3633C16.5626 18.6378 16.163 17.6736 16.163 16.649C16.163 15.6244 16.5626 14.6602 17.288 13.9347C18.0134 13.2093 18.9777 12.8097 20.0023 12.8097C21.0268 12.8097 21.9911 13.2093 22.7166 13.9347C23.442 14.6602 23.8416 15.6244 23.8416 16.649C23.8416 17.6736 23.442 18.6378 22.7166 19.3633C21.9911 20.0887 21.0268 20.4883 20.0023 20.4883Z" fill="white"/>
</svg>
