<svg width="20" height="20" viewBox="0 0 20 20" fill="none" xmlns="http://www.w3.org/2000/svg">
<path d="M10.8359 8.33325H9.16927V6.66658H10.8359V8.33325ZM10.8359 4.99992H9.16927V0.833252H10.8359V4.99992ZM5.83594 14.9999C4.91927 14.9999 4.1776 15.7499 4.1776 16.6666C4.1776 17.5833 4.91927 18.3333 5.83594 18.3333C6.7526 18.3333 7.5026 17.5833 7.5026 16.6666C7.5026 15.7499 6.7526 14.9999 5.83594 14.9999ZM14.1693 14.9999C13.2526 14.9999 12.5109 15.7499 12.5109 16.6666C12.5109 17.5833 13.2526 18.3333 14.1693 18.3333C15.0859 18.3333 15.8359 17.5833 15.8359 16.6666C15.8359 15.7499 15.0859 14.9999 14.1693 14.9999ZM6.7526 10.8333H12.9609C13.5859 10.8333 14.1359 10.4916 14.4193 9.97492L17.5026 4.13325L16.0443 3.33325L12.9609 9.16658H7.11094L3.56094 1.66659H0.835938V3.33325H2.5026L5.5026 9.65825L4.3776 11.6916C3.76927 12.8083 4.56927 14.1666 5.83594 14.1666H15.8359V12.4999H5.83594L6.7526 10.8333Z" fill="#4F4F4F"/>
</svg>
