<svg width="320" height="258" viewBox="0 0 320 258" fill="none" xmlns="http://www.w3.org/2000/svg">
<g clip-path="url(#clip0_13450_2754)">
<path d="M182.299 228.249C180.086 225.15 177.091 222.883 173.325 222.035C170.041 221.295 166.664 221.421 163.326 221.447L121.12 221.772C117.505 221.8 114.039 224.932 114.207 228.685C114.374 232.406 117.245 235.627 121.12 235.597C133.483 235.502 145.847 235.407 158.211 235.311C161.125 235.289 164.042 235.236 166.957 235.246C167.611 235.248 168.263 235.282 168.917 235.29C169.076 235.292 169.19 235.29 169.271 235.287C169.291 235.293 169.308 235.299 169.335 235.306C169.676 235.399 170.026 235.464 170.369 235.553C170.249 235.557 170.591 235.77 170.764 235.843C170.787 235.89 170.838 235.972 170.922 236.1C171.039 236.32 171.387 236.989 171.401 236.968C171.924 238.29 172.355 239.646 172.692 241.026C173.495 244.071 173.672 244.708 173.787 247.564C173.934 251.172 176.862 254.649 180.7 254.477C184.32 254.315 187.769 251.434 187.613 247.564C187.348 241.043 186.204 233.717 182.299 228.249Z" fill="#E6E6E6"/>
<path d="M123.601 243.848C122.808 239.043 122.03 234.236 121.222 229.435C120.402 224.564 118.727 220.104 114.937 216.907C113.924 216.053 112.874 215.255 111.819 214.46C111.449 214.181 111.078 213.901 110.712 213.615C110.69 213.598 110.676 213.588 110.657 213.573C110.617 213.538 110.568 213.497 110.503 213.442C108.924 212.105 107.397 210.708 105.943 209.224C104.652 207.906 103.417 206.531 102.238 205.1C101.944 204.743 101.653 204.382 101.366 204.019C101.317 203.956 101.051 203.612 100.876 203.388C100.713 203.164 100.415 202.759 100.365 202.688C100.03 202.214 99.7011 201.736 99.3778 201.253C97.1761 197.954 95.2696 194.468 93.6805 190.834C93.5229 190.474 93.3691 190.111 93.219 189.747C93.1787 189.635 93.1265 189.492 93.0574 189.302C92.7371 188.421 92.4175 187.542 92.1247 186.651C91.5026 184.758 90.9678 182.838 90.5202 180.889C90.2989 179.927 90.0997 178.96 89.9225 177.988C89.8312 177.488 89.7458 176.987 89.6662 176.485C89.6532 176.402 89.5755 175.861 89.5297 175.555C89.496 175.247 89.4331 174.703 89.4247 174.619C89.3741 174.113 89.3291 173.607 89.2899 173.1C89.2015 171.959 89.1417 170.817 89.1106 169.672C89.0574 167.638 89.0939 165.604 89.2199 163.571C89.2916 162.428 89.3937 161.289 89.5194 160.151C89.527 160.081 89.5329 160.026 89.5384 159.976C89.546 159.925 89.5549 159.867 89.5654 159.795C89.6585 159.167 89.7563 158.539 89.8658 157.913C90.2805 155.537 90.8197 153.185 91.4813 150.865C91.7946 149.768 92.1349 148.68 92.5021 147.601C92.6658 147.122 92.8348 146.645 93.0089 146.169C92.9975 146.2 93.5196 144.866 93.5266 144.822C95.5981 139.927 98.9865 135.465 98.9912 129.905C98.9943 126.14 95.8095 122.534 92.0785 122.708C90.2184 122.778 88.458 123.568 87.1685 124.91C85.879 126.253 85.161 128.043 85.1659 129.905C85.1659 129.989 85.1655 130.061 85.1653 130.131C85.1305 130.249 85.1014 130.346 85.0752 130.433C84.6712 131.311 84.1763 132.145 83.7329 133.001C82.5186 135.344 81.4822 137.764 80.4977 140.22C78.8859 144.219 77.6522 148.359 76.8127 152.588C74.988 161.854 74.8463 171.372 76.3946 180.688C79.0748 197.025 87.9134 212.663 100.201 223.174C101.268 224.087 102.36 224.968 103.463 225.832C103.919 226.189 104.379 226.54 104.841 226.889C105.06 227.053 105.965 227.767 105.567 227.421C106.424 228.152 106.784 228.52 107.004 229.059C107.036 229.183 107.079 229.351 107.138 229.582C107.293 230.189 107.441 230.795 107.563 231.41C108.632 236.79 109.376 242.26 110.269 247.674C110.883 251.394 115.463 253.815 118.773 252.7C122.625 251.402 124.259 247.834 123.601 243.848Z" fill="#E6E6E6"/>
<path d="M182.997 257.801C180.094 257.808 177.307 256.664 175.246 254.619C173.186 252.574 172.021 249.795 172.006 246.892V239.006C163.751 239.93 135.481 239.716 127.377 238.414V246.576C127.355 249.477 126.188 252.252 124.129 254.295C122.07 256.339 119.287 257.485 116.386 257.485C113.485 257.485 110.702 256.339 108.643 254.295C106.584 252.252 105.416 249.477 105.395 246.576V230.551C94.4191 224.454 85.2694 215.538 78.8898 204.724C72.5102 193.91 69.1319 181.59 69.1035 169.034C69.1035 147.506 78.8602 127.422 95.8721 113.935C106.933 105.135 120.372 99.8432 134.463 98.7384C136.375 98.5884 138.3 98.5124 140.182 98.5124C146.815 98.5124 176.741 99.537 184.249 101.697L201.37 84.7087C201.622 84.4556 201.943 84.2831 202.293 84.2134C202.643 84.1436 203.006 84.1797 203.336 84.317C203.668 84.4491 203.952 84.6785 204.152 84.9751C204.351 85.2717 204.456 85.6216 204.452 85.9789V88.68L207.786 85.3783C208.037 85.1249 208.359 84.9522 208.708 84.8823C209.058 84.8124 209.421 84.8485 209.75 84.9859C210.083 85.118 210.367 85.3474 210.567 85.6441C210.766 85.9408 210.871 86.291 210.868 86.6485V116.833C219.459 124.578 226.007 134.322 229.931 145.203C233.856 156.083 235.036 167.764 233.366 179.209C231.697 190.655 227.23 201.512 220.361 210.818C213.492 220.125 204.434 227.593 193.988 232.561V246.892C193.974 249.795 192.809 252.574 190.749 254.619C188.688 256.664 185.901 257.808 182.997 257.801ZM172.87 238.026V246.892C172.892 249.563 173.969 252.118 175.866 253.999C177.762 255.881 180.326 256.936 182.997 256.936C185.669 256.936 188.232 255.881 190.129 253.999C192.026 252.118 193.103 249.563 193.124 246.892V232.015L193.371 231.898C205.091 226.337 215.041 217.636 222.115 206.762C231.129 192.885 234.878 176.24 232.683 159.839C230.488 143.438 222.494 128.365 210.148 117.347L210.004 117.218V86.6485C210.007 86.4627 209.953 86.2805 209.85 86.1263C209.746 85.9722 209.598 85.8535 209.425 85.7863C209.252 85.7127 209.062 85.6928 208.878 85.7293C208.695 85.7658 208.527 85.8569 208.396 85.9907L203.588 90.752V85.9789C203.591 85.7932 203.538 85.6109 203.434 85.4568C203.33 85.3026 203.182 85.1839 203.009 85.1167C202.836 85.0432 202.645 85.0236 202.462 85.0603C202.278 85.097 202.109 85.1885 201.978 85.3226L184.491 102.675L184.242 102.597C177.262 100.412 146.866 99.3765 140.182 99.3765C138.322 99.3765 136.42 99.4516 134.531 99.5999C120.611 100.691 107.335 105.919 96.409 114.612C79.605 127.935 69.9675 147.771 69.9675 169.034C69.9962 181.478 73.3565 193.688 79.6992 204.395C86.0419 215.102 95.1357 223.915 106.036 229.919L106.259 230.042V246.576C106.281 249.247 107.358 251.802 109.255 253.683C111.151 255.564 113.715 256.619 116.386 256.619C119.057 256.619 121.62 255.564 123.517 253.683C125.414 251.802 126.491 249.247 126.513 246.576V237.38L127.025 237.476C134.307 238.846 164.971 239.062 172.382 238.09L172.87 238.026Z" fill="#3F3D56"/>
<path d="M124.426 51.4631L76.5816 65.8414C75.0598 66.3005 73.7826 67.345 73.0304 68.7452C72.2783 70.1455 72.1127 71.7871 72.5701 73.3094C73.0276 74.8317 74.0706 76.1101 75.47 76.8638C76.8695 77.6176 78.5109 77.785 80.0337 77.3292L121.902 64.744L122.779 64.4804C122.957 59.9607 124.183 55.5441 126.361 51.5798C126.088 51.4568 125.796 51.3808 125.497 51.3551C125.136 51.3202 124.772 51.3569 124.426 51.4631Z" fill="#8DAA6A"/>
<path d="M79.2065 80.3951C78.5714 80.3935 77.9528 80.1924 77.4382 79.8202C76.9236 79.4479 76.539 78.9234 76.3387 78.3207L73.3469 69.2929C73.222 68.9158 73.1725 68.5179 73.2013 68.1218C73.2302 67.7257 73.3368 67.3391 73.5151 66.9842C73.6933 66.6292 73.9397 66.3129 74.2403 66.0532C74.5408 65.7936 74.8895 65.5956 75.2666 65.4707L114.207 52.5657C114.584 52.4408 114.982 52.3913 115.378 52.4201C115.774 52.4489 116.16 52.5554 116.515 52.7336C116.87 52.9118 117.186 53.1582 117.446 53.4587C117.706 53.7591 117.904 54.1078 118.029 54.4848L121.021 63.5127C121.27 64.2552 121.22 65.0654 120.881 65.7718C120.543 66.4782 119.943 67.0252 119.209 67.297C119.173 67.3105 119.137 67.3232 119.1 67.3352L80.1608 80.2398C79.8531 80.3424 79.5309 80.3948 79.2065 80.3951Z" fill="#2F2E41"/>
<path d="M152.132 35.4302C144.273 35.4332 136.723 38.4943 131.081 43.9654C125.439 49.4366 122.147 56.8885 121.903 64.744C121.894 65.0507 121.89 65.3618 121.89 65.6729C121.89 71.6543 123.663 77.5014 126.986 82.4748C130.31 87.4482 135.033 91.3244 140.559 93.6134C146.085 95.9024 152.166 96.5013 158.032 95.3344C163.899 94.1675 169.288 91.2872 173.517 87.0576C177.747 82.8281 180.627 77.4394 181.794 71.5729C182.961 65.7064 182.362 59.6256 180.073 54.0995C177.784 48.5734 173.908 43.8501 168.934 40.527C163.961 37.2039 158.114 35.4302 152.132 35.4302ZM152.132 95.0514C144.343 95.0433 136.875 91.9455 131.367 86.4377C125.86 80.9299 122.762 73.462 122.754 65.6729C122.754 65.2711 122.762 64.8736 122.78 64.4804C123.014 58.7256 124.934 53.1665 128.302 48.4943C131.67 43.8222 136.337 40.2431 141.723 38.2022C147.109 36.1613 152.976 35.7486 158.595 37.0153C164.213 38.2821 169.335 41.1725 173.324 45.3271C177.313 49.4817 179.993 54.7172 181.03 60.3826C182.068 66.048 181.417 71.8933 179.159 77.1918C176.901 82.4902 173.135 87.008 168.33 90.1834C163.524 93.3588 157.892 95.0516 152.132 95.0514Z" fill="#3F3D56"/>
<path d="M177.623 65.6733C177.623 72.4337 174.938 78.9172 170.157 83.6976C165.377 88.4779 158.893 91.1635 152.133 91.1635C145.372 91.1635 138.889 88.4779 134.108 83.6976C129.328 78.9172 126.643 72.4337 126.643 65.6733C126.643 64.8653 126.681 64.0704 126.755 63.2841C127.369 56.7596 130.473 50.7223 135.421 46.4258C140.369 42.1293 146.783 39.9037 153.329 40.2112C159.875 40.5187 166.051 43.3355 170.575 48.0769C175.099 52.8183 177.623 59.1199 177.623 65.6733Z" fill="#E6E6E6"/>
<path d="M159.723 67.3667C159.105 66.5544 158.293 65.9109 157.36 65.496C156.21 65.0113 155.022 64.6211 153.809 64.3295V57.391C155.674 57.6722 157.424 58.4699 158.859 59.6937L160.268 56.6911C159.458 55.9694 158.528 55.3948 157.52 54.9932C156.403 54.5408 155.23 54.24 154.033 54.0988V50.582H150.772V54.1334C149.512 54.2749 148.297 54.6828 147.207 55.3301C146.223 55.9128 145.394 56.7251 144.792 57.6977C144.217 58.6469 143.92 59.7378 143.932 60.8473C143.876 62.0496 144.225 63.236 144.922 64.2172C145.563 65.0666 146.411 65.7387 147.384 66.17C148.553 66.669 149.761 67.0693 150.996 67.3667V74.0158C148.795 73.8497 146.697 73.0129 144.986 71.618L143.578 74.625C144.535 75.4159 145.623 76.0329 146.792 76.4482C148.074 76.9068 149.413 77.186 150.772 77.2777V80.7642H154.033V77.2129C155.845 77.0149 157.544 76.2358 158.876 74.9922C159.463 74.4295 159.927 73.7511 160.238 73C160.548 72.2488 160.7 71.4413 160.682 70.6286C160.737 69.4646 160.399 68.3161 159.723 67.3667ZM150.996 63.595C150.202 63.3541 149.463 62.9576 148.823 62.4285C148.569 62.2029 148.369 61.924 148.236 61.6118C148.103 61.2995 148.041 60.9617 148.054 60.6226C148.03 59.8531 148.313 59.1057 148.84 58.5445C149.425 57.9557 150.178 57.5645 150.996 57.4255V63.595ZM155.857 72.7888C155.305 73.3541 154.588 73.728 153.809 73.8559V68.1357C154.553 68.3355 155.25 68.6838 155.857 69.1597C156.087 69.3561 156.269 69.6018 156.391 69.8786C156.513 70.1553 156.571 70.456 156.561 70.7582C156.591 71.4997 156.339 72.2251 155.857 72.7888Z" fill="#8DAA6A"/>
<path d="M80.595 116.984C79.9271 116.983 79.2782 116.761 78.749 116.354C78.2198 115.947 77.8398 115.376 77.6679 114.731L76.0391 108.565C75.8352 107.79 75.947 106.966 76.3499 106.274C76.7529 105.581 77.4141 105.077 78.1885 104.871L129.575 91.292C130.351 91.0897 131.175 91.2027 131.867 91.6064C132.56 92.01 133.064 92.6714 133.27 93.4459L134.65 98.6692L134.391 98.6892C121.212 99.714 108.602 104.492 98.0534 112.459L97.9785 112.495L81.3622 116.884C81.1118 116.95 80.8539 116.984 80.595 116.984Z" fill="#2F2E41"/>
<path d="M72.0846 147.436C66.0567 146.546 60.2916 144.366 55.1824 141.046C52.6511 139.402 50.3079 137.485 48.1946 135.331C46.1088 133.203 44.1134 130.785 43.0802 127.952C42.0862 125.33 42.1374 122.427 43.2233 119.843C44.2944 117.274 46.3404 115.235 48.9127 114.172C51.5005 113.14 54.627 113.03 57.1454 114.16C58.3455 114.686 59.384 115.522 60.1543 116.582C60.5123 117.07 60.7774 117.621 60.9364 118.205C61.0839 118.735 61.0973 119.293 60.9754 119.829C60.8277 120.365 60.5673 120.862 60.2116 121.289C59.8559 121.715 59.4131 122.061 58.9129 122.302C57.8122 122.867 56.6195 123.23 55.3909 123.376C54.1552 123.545 52.3802 123.698 51.3868 122.706C51.1823 122.51 51.0214 122.273 50.9147 122.01C50.8401 121.809 50.8145 121.593 50.8402 121.38C50.8258 121.474 50.9002 121.176 50.8959 121.188C50.8802 121.232 50.8122 121.339 50.9089 121.174C50.9391 121.12 50.9728 121.068 51.0096 121.018C50.9768 121.06 50.9047 121.131 51.0334 121.009C51.1398 120.893 51.2766 120.808 51.4284 120.765C51.4882 120.748 51.5489 120.734 51.6089 120.718C51.7613 120.676 51.457 120.72 51.6129 120.715C51.6731 120.713 51.7339 120.715 51.7939 120.712C51.9469 120.705 51.643 120.67 51.7896 120.707C51.8465 120.721 51.9029 120.735 51.959 120.753C52.0808 120.791 51.8727 120.664 51.9552 120.759C52.052 120.871 51.8536 120.65 51.9636 120.759C52.0184 120.813 52.07 120.869 52.1181 120.929C52.3089 121.117 52.5662 121.223 52.8343 121.223C53.1023 121.223 53.3596 121.117 53.5504 120.929C53.7346 120.736 53.8375 120.48 53.8375 120.213C53.8375 119.946 53.7346 119.69 53.5504 119.497C52.5517 118.259 50.5792 118.565 49.569 119.611C48.2807 120.945 48.7909 123.06 50.044 124.224C51.4627 125.542 53.472 125.634 55.2969 125.413C56.8392 125.265 58.3421 124.841 59.7336 124.159C61.1162 123.48 62.1975 122.312 62.7682 120.881C63.0259 120.117 63.1184 119.308 63.0398 118.506C62.9611 117.704 62.7129 116.927 62.3118 116.228C60.7006 113.199 57.3643 111.646 54.0666 111.377C52.3688 111.244 50.6615 111.449 49.0434 111.98C47.4254 112.512 45.9287 113.358 44.6401 114.472C42.1563 116.708 40.6268 119.813 40.368 123.145C40.0802 126.6 41.4205 129.954 43.3747 132.742C45.4204 135.575 47.8617 138.1 50.624 140.24C56.0242 144.551 62.3587 147.538 69.1204 148.963C69.9247 149.129 70.7333 149.271 71.5462 149.39C71.8049 149.452 72.0777 149.414 72.3091 149.283C72.5406 149.151 72.7132 148.936 72.792 148.682C72.8614 148.423 72.8261 148.147 72.6937 147.914C72.5614 147.681 72.3426 147.51 72.0846 147.436L72.0846 147.436Z" fill="#3F3D56"/>
<path d="M168.596 103.422C159.764 103.297 150.96 103.522 142.184 104.094C139.184 104.29 136.589 105.351 136.589 107.133C136.589 108.623 139.164 110.368 142.184 110.171C150.956 109.598 159.76 109.374 168.596 109.498C175.8 109.6 175.795 103.524 168.596 103.422Z" fill="#CCCCCC"/>
<path d="M155.542 109.197C154.587 109.197 132.166 109.162 132.166 106.065C132.166 102.968 154.587 102.932 155.542 102.932C156.496 102.932 178.917 102.968 178.917 106.065C178.917 109.162 156.496 109.197 155.542 109.197ZM133.043 106.065C133.656 107.004 141.898 108.333 155.542 108.333C169.186 108.333 177.427 107.004 178.041 106.065C177.427 105.126 169.186 103.796 155.542 103.796C141.898 103.796 133.656 105.126 133.043 106.065V106.065Z" fill="#3F3D56"/>
<path d="M226.679 190.615C231.643 190.477 237.82 190.305 242.579 186.829C243.996 185.751 245.16 184.377 245.99 182.802C246.82 181.227 247.295 179.489 247.383 177.711C247.48 174.966 246.488 172.569 244.59 170.965C242.105 168.865 238.475 168.372 234.564 169.522L238.616 139.907L235.641 139.499L230.877 174.316L233.361 173.176C236.242 171.855 240.195 171.182 242.652 173.259C243.255 173.801 243.725 174.476 244.025 175.23C244.325 175.984 244.448 176.797 244.383 177.606C244.31 178.929 243.953 180.221 243.336 181.394C242.719 182.567 241.856 183.594 240.807 184.404C237.104 187.109 232.18 187.458 226.596 187.614L226.679 190.615Z" fill="#3F3D56"/>
<path d="M218.453 142.46H202.281V145.463H218.453V142.46Z" fill="#3F3D56"/>
<path d="M87.9132 130.794C87.1933 130.792 86.4978 130.533 85.9512 130.065C85.4047 129.596 85.0428 128.949 84.9304 128.238L83.9432 121.938C83.8199 121.146 84.016 120.337 84.4884 119.689C84.9608 119.041 85.6709 118.607 86.463 118.482L138.969 110.255C139.761 110.131 140.57 110.328 141.218 110.8C141.866 111.272 142.3 111.982 142.425 112.774L143.412 119.074C143.535 119.867 143.339 120.676 142.867 121.323C142.395 121.971 141.685 122.406 140.893 122.53L88.3863 130.757C88.2298 130.782 88.0716 130.794 87.9132 130.794Z" fill="#2F2E41"/>
<path d="M66.1834 56.9663C78.3524 56.9663 88.2173 47.1014 88.2173 34.9324C88.2173 22.7634 78.3524 12.8984 66.1834 12.8984C54.0143 12.8984 44.1494 22.7634 44.1494 34.9324C44.1494 47.1014 54.0143 56.9663 66.1834 56.9663Z" fill="#8DAA6A"/>
<path d="M78.6584 40.6337C79.3626 40.3874 80.006 39.9931 80.5451 39.4775C80.9018 39.1098 81.1738 38.6686 81.3421 38.1848C81.5104 37.701 81.5708 37.1862 81.5192 36.6766C81.4893 36.3133 81.3757 35.9619 81.1874 35.6498C80.9992 35.3377 80.7413 35.0734 80.4339 34.8775C79.6365 34.3871 78.5828 34.4057 77.519 34.8988L77.3962 26.2979L76.5323 26.3101L76.6766 36.4215L77.3343 35.9901C78.0969 35.4907 79.1928 35.1286 79.9812 35.6136C80.1762 35.742 80.3389 35.9136 80.4568 36.1151C80.5747 36.3166 80.6445 36.5427 80.6607 36.7755C80.6971 37.1552 80.6512 37.5383 80.5263 37.8986C80.4013 38.259 80.2002 38.5882 79.9365 38.8639C78.9999 39.7932 77.6135 40.1046 76.0312 40.3895L76.1844 41.2398C77.0255 41.112 77.8535 40.9092 78.6584 40.6337Z" fill="#2F2E41"/>
<path d="M86.2937 25.6938L81.6924 26.3906L81.8218 27.2449L86.4231 26.548L86.2937 25.6938Z" fill="#2F2E41"/>
<path d="M71.7702 27.893L67.1689 28.5898L67.2983 29.4441L71.8996 28.7472L71.7702 27.893Z" fill="#2F2E41"/>
<path d="M80.7446 130.409C79.9522 130.407 79.179 130.164 78.5281 129.713C77.8771 129.261 77.3792 128.621 77.1006 127.88L61.9088 87.195C60.052 82.2053 60.2502 76.6827 62.4601 71.839C64.67 66.9954 68.711 63.226 73.6966 61.3581L86.0493 56.7456C86.5269 56.566 87.0354 56.4827 87.5454 56.5004C88.0554 56.5181 88.5568 56.6365 89.0209 56.8487C89.4838 57.0556 89.9008 57.3526 90.2477 57.7224C90.5945 58.0923 90.8641 58.5276 91.0408 59.0028L119.182 112.137C119.365 112.616 119.451 113.126 119.436 113.639C119.42 114.151 119.304 114.656 119.093 115.123C118.882 115.59 118.58 116.011 118.206 116.362C117.831 116.712 117.391 116.985 116.911 117.165L82.1035 130.162C81.6689 130.325 81.2087 130.409 80.7446 130.409Z" fill="#2F2E41"/>
<path d="M82.3018 58.1449L110.224 95.4841L91.3302 58.5368C91.1742 58.1057 90.9347 57.7096 90.6256 57.3711C90.3164 57.0325 89.9436 56.7582 89.5284 56.5638C89.1132 56.3694 88.6637 56.2586 88.2057 56.2379C87.7477 56.2172 87.2901 56.287 86.8591 56.4432L82.3018 58.1449Z" fill="#E6E6E6"/>
<path d="M126.513 86.5015L76.6579 83.2901C75.8721 83.2394 75.1039 83.0345 74.3972 82.6871C73.6906 82.3396 73.0593 81.8563 72.5394 81.2648C72.0195 80.6734 71.6212 79.9853 71.3673 79.2399C71.1133 78.4945 71.0087 77.7064 71.0593 76.9206C71.1099 76.1348 71.3148 75.3666 71.6623 74.6599C72.0098 73.9533 72.493 73.322 73.0845 72.8021C73.676 72.2822 74.364 71.8839 75.1094 71.63C75.8548 71.376 76.6429 71.2714 77.4288 71.322L127.284 74.5331C127.652 74.5568 128.012 74.6527 128.343 74.8155C128.674 74.9782 128.969 75.2045 129.213 75.4815C129.456 75.7585 129.643 76.0807 129.762 76.4298C129.881 76.7789 129.93 77.1479 129.906 77.516L129.496 83.8795C129.448 84.6228 129.107 85.3165 128.548 85.8082C127.988 86.2999 127.256 86.5493 126.513 86.5015Z" fill="#8DAA6A"/>
<path d="M113.191 88.5604C113.125 88.5604 113.059 88.5583 112.993 88.5541H112.993L72.0545 85.9171C71.6582 85.8916 71.2708 85.7883 70.9144 85.6131C70.558 85.4379 70.2395 85.1942 69.9773 84.8959C69.7151 84.5976 69.5143 84.2505 69.3862 83.8746C69.2581 83.4987 69.2053 83.1012 69.2309 82.7049L69.9309 71.8356C69.9565 71.4392 70.0598 71.0518 70.2351 70.6954C70.4104 70.339 70.6541 70.0206 70.9524 69.7585C71.2508 69.4963 71.5978 69.2954 71.9738 69.1674C72.3497 69.0393 72.7472 68.9866 73.1435 69.0121L114.082 71.6489C114.882 71.7013 115.628 72.0689 116.158 72.6711C116.687 73.2733 116.956 74.0609 116.905 74.8611L116.205 85.7306C116.167 86.313 115.961 86.8719 115.613 87.3402C115.264 87.8085 114.788 88.1664 114.241 88.3707C113.905 88.4964 113.55 88.5606 113.191 88.5604Z" fill="#2F2E41"/>
<path d="M65.9308 20.2801C68.8295 17.7871 72.81 20.0172 76.1342 19.6268C79.3144 19.2533 81.8257 16.4006 82.4672 13.3699C83.2157 9.8341 81.3804 6.29174 78.6754 4.08723C75.7127 1.67275 71.7834 0.979609 68.06 1.42631C63.7925 1.93827 59.8897 3.92752 56.3876 6.33363C53.0074 8.58416 49.8988 11.2183 47.124 14.1834C44.6393 16.9276 42.5342 20.1985 41.8619 23.8912C41.251 27.2471 41.7175 30.9658 43.7013 33.8087C44.7533 35.2658 46.163 36.4272 47.7945 37.1809C49.4957 38.0162 51.3103 38.6134 52.9583 39.5578C55.4502 40.9858 57.8721 43.9468 57.0915 47.0282C56.9242 47.7013 56.5939 48.3229 56.1298 48.8384C55.5722 49.4574 54.5664 48.6394 55.1255 48.0188C56.1074 46.9287 56.0688 45.475 55.5454 44.1735C54.9232 42.707 53.8213 41.4953 52.4203 40.737C50.6952 39.7507 48.7906 39.1419 47.0224 38.2435C45.33 37.4228 43.861 36.2053 42.7403 34.6948C40.6241 31.7539 39.9911 27.9265 40.471 24.3859C40.9904 20.5544 42.959 17.0727 45.4268 14.155C48.1124 10.9798 51.4113 8.29206 54.7815 5.87747C58.3977 3.28661 62.3929 1.09621 66.8138 0.303973C70.646 -0.382769 74.7999 0.040033 78.151 2.12844C81.2791 4.07784 83.6778 7.43118 83.9164 11.1782C84.002 12.8831 83.6318 14.58 82.8439 16.0943C82.056 17.6086 80.8788 18.8857 79.4334 19.7939C77.9504 20.6814 76.2261 21.0809 74.5039 20.936C72.6627 20.8181 70.8197 20.2543 68.9668 20.4108C68.1283 20.4617 67.3293 20.7846 66.6908 21.3304C66.0575 21.8751 65.3027 20.8203 65.9308 20.2801V20.2801Z" fill="#2F2E41"/>
<path d="M319.486 258.002H0.514886C0.378712 258.002 0.248252 257.948 0.152101 257.851C0.0559503 257.755 0.00195312 257.624 0.00195312 257.488C0.00195312 257.352 0.0559503 257.221 0.152101 257.125C0.248252 257.028 0.378712 256.974 0.514886 256.974H319.486C319.622 256.974 319.753 257.028 319.85 257.124C319.946 257.221 320 257.352 320 257.488C320 257.624 319.946 257.755 319.85 257.852C319.753 257.948 319.622 258.002 319.486 258.002Z" fill="#3F3D56"/>
</g>
<defs>
<clipPath id="clip0_13450_2754">
<rect width="320" height="258.002" fill="white"/>
</clipPath>
</defs>
</svg>
