<svg width="20" height="20" viewBox="0 0 20 20" fill="none" xmlns="http://www.w3.org/2000/svg">
<path d="M2.4974 16.6666V7.24996C2.26128 7.09718 2.06351 6.90274 1.90406 6.66663C1.74406 6.43051 1.66406 6.15274 1.66406 5.83329V3.33329C1.66406 2.87496 1.8274 2.48246 2.15406 2.15579C2.48017 1.82968 2.8724 1.66663 3.33073 1.66663H16.6641C17.1224 1.66663 17.5149 1.82968 17.8416 2.15579C18.1677 2.48246 18.3307 2.87496 18.3307 3.33329V5.83329C18.3307 6.15274 18.2507 6.43051 18.0907 6.66663C17.9313 6.90274 17.7335 7.09718 17.4974 7.24996V16.6666C17.4974 17.125 17.3343 17.5175 17.0082 17.8441C16.6816 18.1702 16.2891 18.3333 15.8307 18.3333H4.16406C3.70573 18.3333 3.31323 18.1702 2.98656 17.8441C2.66045 17.5175 2.4974 17.125 2.4974 16.6666ZM4.16406 7.49996V16.6666H15.8307V7.49996H4.16406ZM16.6641 5.83329V3.33329H3.33073V5.83329H16.6641ZM7.4974 11.6666H12.4974V9.99996H7.4974V11.6666ZM4.16406 16.6666V7.49996V16.6666Z" fill="#4F4F4F"/>
</svg>
