<svg width="20" height="20" viewBox="0 0 20 20" fill="none" xmlns="http://www.w3.org/2000/svg">
<path d="M3.67087 13.992V17.4194L7.09829 16.5726L9.67893 19.1533L12.2596 16.5726L15.687 17.4194V13.992L19.1547 13.1049L17.4209 9.67747L19.1547 6.25005L15.687 5.36295V1.93553L12.2596 2.78231L9.67893 0.20166L7.09829 2.78231L3.67087 1.93553V5.36295L0.203125 6.25005L1.937 9.67747L0.203125 13.1049L3.67087 13.992ZM3.46925 8.91134L2.70312 7.33876L4.07409 7.01618C4.47732 6.93553 4.79318 6.74064 5.02167 6.4315C5.25017 6.12236 5.36442 5.76618 5.36442 5.36295V4.15327L6.65474 4.51618H7.09829C7.55528 4.51618 7.9585 4.34144 8.30796 3.99198L9.67893 2.62101L11.0499 3.99198C11.3994 4.34144 11.8026 4.51618 12.2596 4.51618C12.4209 4.51618 12.5687 4.48929 12.7031 4.43553L13.9934 4.15327V5.36295C13.9934 5.76618 14.1077 6.12236 14.3362 6.4315C14.5647 6.74064 14.8805 6.93553 15.2838 7.01618L16.6547 7.33876L15.8886 8.91134C15.6198 9.42209 15.6198 9.93284 15.8886 10.4436L16.6547 12.0162L15.2838 12.3388C14.8805 12.4194 14.5647 12.6143 14.3362 12.9234C14.1077 13.2326 13.9934 13.5888 13.9934 13.992V15.2017L12.7031 14.8388H12.2596C11.8026 14.8388 11.3994 15.0135 11.0499 15.363L9.67893 16.7339L8.30796 15.363C7.9585 15.0135 7.55528 14.8388 7.09829 14.8388C6.937 14.8388 6.78915 14.8656 6.65474 14.9194L5.36442 15.2017V13.992C5.36442 13.5888 5.25017 13.2326 5.02167 12.9234C4.79318 12.6143 4.47732 12.4194 4.07409 12.3388L2.70312 12.0162L3.46925 10.4436C3.73807 9.93284 3.73807 9.42209 3.46925 8.91134ZM8.83216 12.621L12.8644 8.54843C13.2408 8.17209 13.2408 7.76886 12.8644 7.33876C12.4612 6.98929 12.058 6.98929 11.6547 7.33876L8.83216 10.2017L7.70312 9.07263C7.2999 8.72317 6.89667 8.72317 6.49345 9.07263C6.14398 9.47585 6.14398 9.87908 6.49345 10.2823L8.83216 12.621Z" fill="#4F4F4F"/>
</svg>
