<svg width="20" height="22" viewBox="0 0 20 22" fill="none" xmlns="http://www.w3.org/2000/svg">
<path d="M9 2.2002C8.46957 2.2002 7.96086 2.43198 7.58579 2.84456C7.21071 3.25714 7 3.81672 7 4.4002V13.2002C7 13.7837 7.21071 14.3433 7.58579 14.7558C7.96086 15.1684 8.46957 15.4002 9 15.4002H15C15.5304 15.4002 16.0391 15.1684 16.4142 14.7558C16.7893 14.3433 17 13.7837 17 13.2002V7.0556C16.9999 6.47217 16.7891 5.91268 16.414 5.5002L14 2.8448C13.625 2.43219 13.1164 2.20032 12.586 2.2002H9Z" fill="#F2F2F2"/>
<path d="M3 8.8001C3 8.21662 3.21071 7.65704 3.58579 7.24446C3.96086 6.83188 4.46957 6.6001 5 6.6001V17.6001H13C13 18.1836 12.7893 18.7432 12.4142 19.1557C12.0391 19.5683 11.5304 19.8001 11 19.8001H5C4.46957 19.8001 3.96086 19.5683 3.58579 19.1557C3.21071 18.7432 3 18.1836 3 17.6001V8.8001Z" fill="#F2F2F2"/>
</svg>
